<svg version="1.1" viewBox="0.0 0.0 456.4146981627297 304.2755905511811" fill="none" stroke="none" stroke-linecap="square" stroke-miterlimit="10" xmlns:xlink="http://www.w3.org/1999/xlink" xmlns="http://www.w3.org/2000/svg"><clipPath id="p.0"><path d="m0 0l456.4147 0l0 304.2756l-456.4147 0l0 -304.2756z" clip-rule="nonzero"/></clipPath><g clip-path="url(#p.0)"><path fill="#000000" fill-opacity="0.0" d="m0 0l456.4147 0l0 304.2756l-456.4147 0z" fill-rule="evenodd"/><path fill="#000000" fill-opacity="0.0" d="m121.422844 188.24408l0 0c-1.781784 -7.006958 4.0681686 -13.94342 15.0675125 -17.865982c10.999344 -3.922577 25.21904 -4.143326 36.625137 -0.568573l0 0c4.04039 -4.074127 11.435471 -6.887039 19.948395 -7.5878754c8.512909 -0.7008362 17.143784 0.7927246 23.281937 4.0289l0 0c3.4418945 -3.693863 10.200104 -6.1756744 17.876465 -6.5647583c7.6763763 -0.3890686 15.184494 1.3696594 19.860123 4.6520996l0 0c6.218277 -3.9154968 16.11171 -5.564087 25.399368 -4.2324066c9.287628 1.3316803 16.301361 5.404434 18.006256 10.455963l0 0c7.6184387 1.1120148 13.964447 3.938919 17.398407 7.7503204c3.43396 3.811386 3.6190186 8.233398 0.50735474 12.123505l0 0c7.501953 5.2248383 9.256836 12.186874 4.6097717 18.28801c-4.6470337 6.10112 -14.997864 10.424713 -27.189728 11.357285c-0.0859375 5.72612 -5.954468 10.980347 -15.343597 13.737457c-9.38916 2.7571259 -20.832733 2.5865936 -29.919952 -0.44584656c-3.8706512 6.858032 -14.765289 11.9040985 -27.97699 12.95813c-13.211716 1.0540161 -26.37204 -2.0729523 -33.795242 -8.029953c-9.099304 2.9362183 -20.0177 3.7820587 -30.292221 2.346695c-10.274536 -1.4353638 -19.039719 -5.031021 -24.318314 -9.975845l0 0c-9.298332 0.58226013 -18.288536 -1.995697 -22.508812 -6.4544373c-4.2202682 -4.45874 -2.7722015 -9.849106 3.6255264 -13.495895l0 0c-8.294357 -2.612381 -12.526642 -7.7962036 -10.489876 -12.848328c2.0367584 -5.052109 9.881035 -8.8276825 19.44233 -9.357895z" fill-rule="evenodd"/><path fill="#000000" fill-opacity="0.0" d="m112.28658 210.72037l0 0c3.9141312 1.2328033 8.435875 1.7920227 12.958107 1.6025848m5.9231567 18.34819c1.9447174 -0.121780396 3.8509216 -0.37965393 5.6694336 -0.7669983m48.93837 8.395828c-1.3677979 -1.0976257 -2.5129852 -2.2705536 -3.4160461 -3.498764m65.19064 -1.4296112l0 0c0.7056885 -1.2503204 1.1629028 -2.5371704 1.3640442 -3.8390808m43.89778 -9.452057c0.0914917 -6.096344 -6.3791504 -11.678207 -16.632599 -14.348038m39.21234 -15.2966c-1.660492 2.0759125 -4.195465 3.9174347 -7.4060974 5.3801727m-10.498108 -25.254547l0 0c0.28295898 0.8383026 0.4138794 1.689209 0.39102173 2.540924m-43.7959 -8.764221l0 0c-1.5511475 0.9767151 -2.8291016 2.0681915 -3.7940521 3.2404327m-33.942886 -1.3282013l0 0c-0.82662964 0.887146 -1.4439087 1.8258972 -1.8376007 2.7946472m-41.39337 0.7644043l0 0c2.4135284 0.7564087 4.6463623 1.6668396 6.64946 2.7112732m-58.34144 15.723373l0 0c0.24557495 0.965744 0.6335983 1.9195862 1.1604385 2.8525848" fill-rule="evenodd"/><path stroke="#000000" stroke-width="2.0" stroke-linejoin="round" stroke-linecap="butt" d="m121.422844 188.24408l0 0c-1.781784 -7.006958 4.0681686 -13.94342 15.0675125 -17.865982c10.999344 -3.922577 25.21904 -4.143326 36.625137 -0.568573l0 0c4.04039 -4.074127 11.435471 -6.887039 19.948395 -7.5878754c8.512909 -0.7008362 17.143784 0.7927246 23.281937 4.0289l0 0c3.4418945 -3.693863 10.200104 -6.1756744 17.876465 -6.5647583c7.6763763 -0.3890686 15.184494 1.3696594 19.860123 4.6520996l0 0c6.218277 -3.9154968 16.11171 -5.564087 25.399368 -4.2324066c9.287628 1.3316803 16.301361 5.404434 18.006256 10.455963l0 0c7.6184387 1.1120148 13.964447 3.938919 17.398407 7.7503204c3.43396 3.811386 3.6190186 8.233398 0.50735474 12.123505l0 0c7.501953 5.2248383 9.256836 12.186874 4.6097717 18.28801c-4.6470337 6.10112 -14.997864 10.424713 -27.189728 11.357285c-0.0859375 5.72612 -5.954468 10.980347 -15.343597 13.737457c-9.38916 2.7571259 -20.832733 2.5865936 -29.919952 -0.44584656c-3.8706512 6.858032 -14.765289 11.9040985 -27.97699 12.95813c-13.211716 1.0540161 -26.37204 -2.0729523 -33.795242 -8.029953c-9.099304 2.9362183 -20.0177 3.7820587 -30.292221 2.346695c-10.274536 -1.4353638 -19.039719 -5.031021 -24.318314 -9.975845l0 0c-9.298332 0.58226013 -18.288536 -1.995697 -22.508812 -6.4544373c-4.2202682 -4.45874 -2.7722015 -9.849106 3.6255264 -13.495895l0 0c-8.294357 -2.612381 -12.526642 -7.7962036 -10.489876 -12.848328c2.0367584 -5.052109 9.881035 -8.8276825 19.44233 -9.357895z" fill-rule="evenodd"/><path stroke="#000000" stroke-width="2.0" stroke-linejoin="round" stroke-linecap="butt" d="m112.28658 210.72037l0 0c3.9141312 1.2328033 8.435875 1.7920227 12.958107 1.6025848m5.9231567 18.34819c1.9447174 -0.121780396 3.8509216 -0.37965393 5.6694336 -0.7669983m48.93837 8.395828c-1.3677979 -1.0976257 -2.5129852 -2.2705536 -3.4160461 -3.498764m65.19064 -1.4296112l0 0c0.7056885 -1.2503204 1.1629028 -2.5371704 1.3640442 -3.8390808m43.89778 -9.452057c0.0914917 -6.096344 -6.3791504 -11.678207 -16.632599 -14.348038m39.21234 -15.2966c-1.660492 2.0759125 -4.195465 3.9174347 -7.4060974 5.3801727m-10.498108 -25.254547l0 0c0.28295898 0.8383026 0.4138794 1.689209 0.39102173 2.540924m-43.7959 -8.764221l0 0c-1.5511475 0.9767151 -2.8291016 2.0681915 -3.7940521 3.2404327m-33.942886 -1.3282013l0 0c-0.82662964 0.887146 -1.4439087 1.8258972 -1.8376007 2.7946472m-41.39337 0.7644043l0 0c2.4135284 0.7564087 4.6463623 1.6668396 6.64946 2.7112732m-58.34144 15.723373l0 0c0.24557495 0.965744 0.6335983 1.9195862 1.1604385 2.8525848" fill-rule="evenodd"/><path fill="#000000" fill-opacity="0.0" d="m65.39871 31.472443l20.566925 0l0 21.700787l-20.566925 0z" fill-rule="evenodd"/><path stroke="#424242" stroke-width="2.0" stroke-linejoin="round" stroke-linecap="butt" d="m65.39871 31.472443l20.566925 0l0 21.700787l-20.566925 0z" fill-rule="evenodd"/><path fill="#000000" fill-opacity="0.0" d="m64.03744 275.93384l0 0c0 -5.992523 4.604065 -10.850403 10.283463 -10.850403l0 0c2.7273483 0 5.342987 1.143158 7.2715073 3.178009c1.9285278 2.034851 3.011963 4.7946777 3.011963 7.672394l0 0c0 5.9924927 -4.604065 10.850372 -10.28347 10.850372l0 0c-5.6793976 0 -10.283463 -4.8578796 -10.283463 -10.850372z" fill-rule="evenodd"/><path stroke="#424242" stroke-width="2.0" stroke-linejoin="round" stroke-linecap="butt" d="m64.03744 275.93384l0 0c0 -5.992523 4.604065 -10.850403 10.283463 -10.850403l0 0c2.7273483 0 5.342987 1.143158 7.2715073 3.178009c1.9285278 2.034851 3.011963 4.7946777 3.011963 7.672394l0 0c0 5.9924927 -4.604065 10.850372 -10.28347 10.850372l0 0c-5.6793976 0 -10.283463 -4.8578796 -10.283463 -10.850372z" fill-rule="evenodd"/><path fill="#000000" fill-opacity="0.0" d="m169.42775 173.42783l87.96852 0l0 59.716537l-87.96852 0z" fill-rule="evenodd"/><path fill="#000000" d="m184.57695 186.98845l1.5625 0l0 5.78125l6.90625 0l0 -5.78125l1.5625 0l0 13.359375l-1.5625 0l0 -6.078125l-6.90625 0l0 6.078125l-1.5625 0l0 -13.359375zm13.631439 2.09375q-0.46875 0 -0.8125 -0.328125q-0.328125 -0.34375 -0.328125 -0.8125q0 -0.46875 0.328125 -0.796875q0.34375 -0.328125 0.8125 -0.328125q0.46875 0 0.796875 0.328125q0.34375 0.328125 0.34375 0.796875q0 0.46875 -0.328125 0.8125q-0.328125 0.328125 -0.8125 0.328125zm-0.78125 1.75l1.5625 0l0 9.515625l-1.5625 0l0 -9.515625zm8.091309 9.8125q-1.265625 0 -2.3125 -0.640625q-1.03125 -0.65625 -1.625 -1.796875q-0.59375 -1.15625 -0.59375 -2.609375q0 -1.4375 0.59375 -2.59375q0.59375 -1.15625 1.625 -1.8125q1.046875 -0.65625 2.3125 -0.65625q1.109375 0 1.953125 0.5q0.859375 0.484375 1.3125 1.21875l0.078125 0l-0.078125 -1.328125l0 -3.9375l1.59375 0l0 13.359375l-1.515625 0l0 -1.40625l-0.078125 0q-0.453125 0.71875 -1.3125 1.21875q-0.84375 0.484375 -1.953125 0.484375zm0.1875 -1.4375q0.84375 0 1.5625 -0.4375q0.71875 -0.453125 1.15625 -1.265625q0.4375 -0.828125 0.4375 -1.90625q0 -1.09375 -0.4375 -1.90625q-0.4375 -0.828125 -1.15625 -1.265625q-0.71875 -0.453125 -1.5625 -0.453125q-0.8125 0 -1.546875 0.453125q-0.734375 0.4375 -1.171875 1.265625q-0.4375 0.828125 -0.4375 1.90625q0 1.0625 0.4375 1.890625q0.4375 0.828125 1.171875 1.28125q0.734375 0.4375 1.546875 0.4375zm11.043564 1.4375q-1.265625 0 -2.3125 -0.640625q-1.03125 -0.65625 -1.625 -1.796875q-0.59375 -1.15625 -0.59375 -2.609375q0 -1.4375 0.59375 -2.59375q0.59375 -1.15625 1.625 -1.8125q1.046875 -0.65625 2.3125 -0.65625q1.109375 0 1.953125 0.5q0.859375 0.484375 1.3125 1.21875l0.078125 0l-0.078125 -1.328125l0 -3.9375l1.59375 0l0 13.359375l-1.515625 0l0 -1.40625l-0.078125 0q-0.453125 0.71875 -1.3125 1.21875q-0.84375 0.484375 -1.953125 0.484375zm0.1875 -1.4375q0.84375 0 1.5625 -0.4375q0.71875 -0.453125 1.15625 -1.265625q0.4375 -0.828125 0.4375 -1.90625q0 -1.09375 -0.4375 -1.90625q-0.4375 -0.828125 -1.15625 -1.265625q-0.71875 -0.453125 -1.5625 -0.453125q-0.8125 0 -1.546875 0.453125q-0.734375 0.4375 -1.171875 1.265625q-0.4375 0.828125 -0.4375 1.90625q0 1.0625 0.4375 1.890625q0.4375 0.828125 1.171875 1.28125q0.734375 0.4375 1.546875 0.4375zm11.246689 1.4375q-1.359375 0 -2.4375 -0.640625q-1.078125 -0.65625 -1.6875 -1.796875q-0.609375 -1.15625 -0.609375 -2.59375q0 -1.390625 0.5625 -2.546875q0.578125 -1.15625 1.625 -1.84375q1.046875 -0.6875 2.421875 -0.6875q1.390625 0 2.421875 0.625q1.03125 0.625 1.578125 1.734375q0.546875 1.09375 0.546875 2.515625q0 0.265625 -0.046875 0.484375l-7.53125 0q0.0625 1.078125 0.53125 1.828125q0.46875 0.734375 1.1875 1.109375q0.71875 0.375 1.5 0.375q1.828125 0 2.8125 -1.71875l1.34375 0.65625q-0.609375 1.15625 -1.671875 1.828125q-1.046875 0.671875 -2.546875 0.671875zm2.75 -6.0625q-0.046875 -0.59375 -0.34375 -1.1875q-0.296875 -0.609375 -0.9375 -1.015625q-0.640625 -0.40625 -1.609375 -0.40625q-1.125 0 -1.90625 0.71875q-0.765625 0.71875 -1.015625 1.890625l5.8125 0zm3.5190887 -3.75l1.515625 0l0 1.40625l0.078125 0q0.390625 -0.71875 1.25 -1.203125q0.859375 -0.5 1.828125 -0.5q1.71875 0 2.609375 1.0q0.90625 1.0 0.90625 2.71875l0 6.09375l-1.578125 0l0 -5.859375q0 -1.328125 -0.640625 -1.921875q-0.625 -0.59375 -1.734375 -0.59375q-0.765625 0 -1.375 0.4375q-0.59375 0.421875 -0.9375 1.125q-0.328125 0.6875 -0.328125 1.453125l0 5.359375l-1.59375 0l0 -9.515625zm9.294281 9.515625l0 0z" fill-rule="nonzero"/><path fill="#000000" d="m187.23546 208.98845l1.5625 0l0 11.84375l5.859375 0l0 1.515625l-7.421875 0l0 -13.359375zm12.214783 13.65625q-1.046875 0 -1.875 -0.40625q-0.8125 -0.40625 -1.265625 -1.125q-0.4375 -0.71875 -0.4375 -1.640625q0 -1.515625 1.125 -2.359375q1.140625 -0.84375 2.875 -0.84375q0.859375 0 1.59375 0.1875q0.75 0.1875 1.140625 0.421875l0 -0.578125q0 -1.0625 -0.75 -1.703125q-0.75 -0.640625 -1.890625 -0.640625q-0.796875 0 -1.46875 0.34375q-0.671875 0.34375 -1.0625 0.953125l-1.203125 -0.890625q0.5625 -0.859375 1.546875 -1.34375q0.984375 -0.484375 2.171875 -0.484375q1.9375 0 3.046875 1.015625q1.109375 1.015625 1.109375 2.765625l0 6.03125l-1.5 0l0 -1.359375l-0.078125 0q-0.40625 0.6875 -1.234375 1.171875q-0.8125 0.484375 -1.84375 0.484375zm0.140625 -1.390625q0.8125 0 1.5 -0.40625q0.6875 -0.421875 1.09375 -1.109375q0.421875 -0.6875 0.421875 -1.515625q-0.453125 -0.296875 -1.109375 -0.484375q-0.65625 -0.1875 -1.375 -0.1875q-1.3125 0 -1.984375 0.546875q-0.65625 0.53125 -0.65625 1.390625q0 0.78125 0.59375 1.28125q0.609375 0.484375 1.515625 0.484375zm9.625214 0.5l-3.921875 -8.921875l1.703125 0l2.984375 7.078125l0.046875 0l2.875 -7.078125l1.71875 0l-5.890625 13.546875l-1.640625 0l2.125 -4.625zm10.954758 0.890625q-1.359375 0 -2.4375 -0.640625q-1.078125 -0.65625 -1.6875 -1.796875q-0.609375 -1.15625 -0.609375 -2.59375q0 -1.390625 0.5625 -2.546875q0.578125 -1.15625 1.625 -1.84375q1.046875 -0.6875 2.421875 -0.6875q1.390625 0 2.421875 0.625q1.03125 0.625 1.578125 1.734375q0.546875 1.09375 0.546875 2.515625q0 0.265625 -0.046875 0.484375l-7.53125 0q0.0625 1.078125 0.53125 1.828125q0.46875 0.734375 1.1875 1.109375q0.71875 0.375 1.5 0.375q1.828125 0 2.8125 -1.71875l1.34375 0.65625q-0.609375 1.15625 -1.671875 1.828125q-1.046875 0.671875 -2.546875 0.671875zm2.75 -6.0625q-0.046875 -0.59375 -0.34375 -1.1875q-0.296875 -0.609375 -0.9375 -1.015625q-0.640625 -0.40625 -1.609375 -0.40625q-1.125 0 -1.90625 0.71875q-0.765625 0.71875 -1.015625 1.890625l5.8125 0zm3.5190887 -3.75l1.515625 0l0 1.53125l0.078125 0q0.28125 -0.78125 1.078125 -1.296875q0.796875 -0.515625 1.671875 -0.515625q0.65625 0 1.125 0.1875l0 1.71875q-0.59375 -0.296875 -1.34375 -0.296875q-0.6875 0 -1.265625 0.390625q-0.578125 0.390625 -0.921875 1.0625q-0.34375 0.65625 -0.34375 1.421875l0 5.3125l-1.59375 0l0 -9.515625zm10.324219 9.8125q-1.53125 0 -2.5625 -0.71875q-1.015625 -0.71875 -1.453125 -1.828125l1.421875 -0.640625q0.34375 0.859375 1.046875 1.328125q0.703125 0.46875 1.546875 0.46875q0.890625 0 1.515625 -0.359375q0.640625 -0.375 0.640625 -1.046875q0 -0.59375 -0.5 -0.953125q-0.5 -0.375 -1.578125 -0.625l-1.15625 -0.3125q-1.140625 -0.28125 -1.875 -0.9375q-0.71875 -0.671875 -0.71875 -1.75q0 -0.8125 0.484375 -1.4375q0.5 -0.625 1.3125 -0.953125q0.828125 -0.34375 1.78125 -0.34375q1.25 0 2.21875 0.546875q0.984375 0.53125 1.390625 1.5l-1.375 0.640625q-0.640625 -1.265625 -2.25 -1.265625q-0.796875 0 -1.390625 0.359375q-0.578125 0.359375 -0.578125 0.921875q0 0.53125 0.40625 0.859375q0.421875 0.3125 1.234375 0.515625l1.390625 0.359375q1.390625 0.359375 2.09375 1.0625q0.71875 0.6875 0.71875 1.703125q0 0.875 -0.515625 1.546875q-0.5 0.65625 -1.359375 1.015625q-0.84375 0.34375 -1.890625 0.34375z" fill-rule="nonzero"/><path fill="#d9ead3" d="m31.614174 31.472443l20.566929 0l0 21.700787l-20.566929 0z" fill-rule="evenodd"/><path stroke="#424242" stroke-width="2.0" stroke-linejoin="round" stroke-linecap="butt" d="m31.614174 31.472443l20.566929 0l0 21.700787l-20.566929 0z" fill-rule="evenodd"/><path fill="#d9ead3" d="m65.39871 31.472443l20.566925 0l0 21.700787l-20.566925 0z" fill-rule="evenodd"/><path stroke="#424242" stroke-width="2.0" stroke-linejoin="round" stroke-linecap="butt" d="m65.39871 31.472443l20.566925 0l0 21.700787l-20.566925 0z" fill-rule="evenodd"/><path fill="#93c47d" d="m99.18325 31.472443l20.566925 0l0 21.700787l-20.566925 0z" fill-rule="evenodd"/><path stroke="#424242" stroke-width="2.0" stroke-linejoin="round" stroke-linecap="butt" d="m99.18325 31.472443l20.566925 0l0 21.700787l-20.566925 0z" fill-rule="evenodd"/><path fill="#d9ead3" d="m132.96779 31.472443l20.566925 0l0 21.700787l-20.566925 0z" fill-rule="evenodd"/><path stroke="#424242" stroke-width="2.0" stroke-linejoin="round" stroke-linecap="butt" d="m132.96779 31.472443l20.566925 0l0 21.700787l-20.566925 0z" fill-rule="evenodd"/><path fill="#d9ead3" d="m198.429 31.472443l20.56694 0l0 21.700787l-20.56694 0z" fill-rule="evenodd"/><path stroke="#424242" stroke-width="2.0" stroke-linejoin="round" stroke-linecap="butt" d="m198.429 31.472443l20.56694 0l0 21.700787l-20.56694 0z" fill-rule="evenodd"/><path fill="#38761d" d="m232.21355 31.472443l20.566925 0l0 21.700787l-20.566925 0z" fill-rule="evenodd"/><path stroke="#424242" stroke-width="2.0" stroke-linejoin="round" stroke-linecap="butt" d="m232.21355 31.472443l20.566925 0l0 21.700787l-20.566925 0z" fill-rule="evenodd"/><path fill="#d9ead3" d="m263.89023 31.472443l20.566925 0l0 21.700787l-20.566925 0z" fill-rule="evenodd"/><path stroke="#424242" stroke-width="2.0" stroke-linejoin="round" stroke-linecap="butt" d="m263.89023 31.472443l20.566925 0l0 21.700787l-20.566925 0z" fill-rule="evenodd"/><path fill="#000000" fill-opacity="0.0" d="m130.24759 117.63313l0 0c0 -5.992508 4.604065 -10.850395 10.283478 -10.850395l0 0c2.7273407 0 5.342972 1.143158 7.2714996 3.178009c1.9285278 2.0348434 3.011963 4.7946777 3.011963 7.672386l0 0c0 5.9925003 -4.604065 10.850388 -10.283463 10.850388l0 0c-5.679413 0 -10.283478 -4.8578873 -10.283478 -10.850388z" fill-rule="evenodd"/><path stroke="#424242" stroke-width="2.0" stroke-linejoin="round" stroke-linecap="butt" d="m130.24759 117.63313l0 0c0 -5.992508 4.604065 -10.850395 10.283478 -10.850395l0 0c2.7273407 0 5.342972 1.143158 7.2714996 3.178009c1.9285278 2.0348434 3.011963 4.7946777 3.011963 7.672386l0 0c0 5.9925003 -4.604065 10.850388 -10.283463 10.850388l0 0c-5.679413 0 -10.283478 -4.8578873 -10.283478 -10.850388z" fill-rule="evenodd"/><path fill="#000000" fill-opacity="0.0" d="m164.03214 117.63313l0 0c0 -5.992508 4.604065 -10.850395 10.283463 -10.850395l0 0c2.7273407 0 5.342987 1.143158 7.2714996 3.178009c1.9285278 2.0348434 3.011963 4.7946777 3.011963 7.672386l0 0c0 5.9925003 -4.604065 10.850388 -10.283463 10.850388l0 0c-5.6793976 0 -10.283463 -4.8578873 -10.283463 -10.850388z" fill-rule="evenodd"/><path stroke="#424242" stroke-width="2.0" stroke-linejoin="round" stroke-linecap="butt" d="m164.03214 117.63313l0 0c0 -5.992508 4.604065 -10.850395 10.283463 -10.850395l0 0c2.7273407 0 5.342987 1.143158 7.2714996 3.178009c1.9285278 2.0348434 3.011963 4.7946777 3.011963 7.672386l0 0c0 5.9925003 -4.604065 10.850388 -10.283463 10.850388l0 0c-5.6793976 0 -10.283463 -4.8578873 -10.283463 -10.850388z" fill-rule="evenodd"/><path fill="#000000" fill-opacity="0.0" d="m197.81667 117.63313l0 0c0 -5.992508 4.604065 -10.850395 10.283463 -10.850395l0 0c2.727356 0 5.342987 1.143158 7.271515 3.178009c1.9285278 2.0348434 3.011963 4.7946777 3.011963 7.672386l0 0c0 5.9925003 -4.604065 10.850388 -10.283478 10.850388l0 0c-5.6793976 0 -10.283463 -4.8578873 -10.283463 -10.850388z" fill-rule="evenodd"/><path stroke="#424242" stroke-width="2.0" stroke-linejoin="round" stroke-linecap="butt" d="m197.81667 117.63313l0 0c0 -5.992508 4.604065 -10.850395 10.283463 -10.850395l0 0c2.727356 0 5.342987 1.143158 7.271515 3.178009c1.9285278 2.0348434 3.011963 4.7946777 3.011963 7.672386l0 0c0 5.9925003 -4.604065 10.850388 -10.283478 10.850388l0 0c-5.6793976 0 -10.283463 -4.8578873 -10.283463 -10.850388z" fill-rule="evenodd"/><path fill="#000000" fill-opacity="0.0" d="m231.60121 117.63313l0 0c0 -5.992508 4.604065 -10.850395 10.283463 -10.850395l0 0c2.7273407 0 5.342987 1.143158 7.2714996 3.178009c1.9285278 2.0348434 3.011963 4.7946777 3.011963 7.672386l0 0c0 5.9925003 -4.604065 10.850388 -10.283463 10.850388l0 0c-5.6793976 0 -10.283463 -4.8578873 -10.283463 -10.850388z" fill-rule="evenodd"/><path stroke="#424242" stroke-width="2.0" stroke-linejoin="round" stroke-linecap="butt" d="m231.60121 117.63313l0 0c0 -5.992508 4.604065 -10.850395 10.283463 -10.850395l0 0c2.7273407 0 5.342987 1.143158 7.2714996 3.178009c1.9285278 2.0348434 3.011963 4.7946777 3.011963 7.672386l0 0c0 5.9925003 -4.604065 10.850388 -10.283463 10.850388l0 0c-5.6793976 0 -10.283463 -4.8578873 -10.283463 -10.850388z" fill-rule="evenodd"/><path fill="#000000" fill-opacity="0.0" d="m265.38574 117.63313l0 0c0 -5.992508 4.604065 -10.850395 10.283478 -10.850395l0 0c2.7273254 0 5.342987 1.143158 7.2714844 3.178009c1.9285278 2.0348434 3.011963 4.7946777 3.011963 7.672386l0 0c0 5.9925003 -4.604065 10.850388 -10.283447 10.850388l0 0c-5.679413 0 -10.283478 -4.8578873 -10.283478 -10.850388z" fill-rule="evenodd"/><path stroke="#424242" stroke-width="2.0" stroke-linejoin="round" stroke-linecap="butt" d="m265.38574 117.63313l0 0c0 -5.992508 4.604065 -10.850395 10.283478 -10.850395l0 0c2.7273254 0 5.342987 1.143158 7.2714844 3.178009c1.9285278 2.0348434 3.011963 4.7946777 3.011963 7.672386l0 0c0 5.9925003 -4.604065 10.850388 -10.283447 10.850388l0 0c-5.679413 0 -10.283478 -4.8578873 -10.283478 -10.850388z" fill-rule="evenodd"/><path fill="#000000" d="m164.64447 42.323277l0 0c0 -1.43507 1.1069489 -2.5984268 2.4724426 -2.5984268l0 0c0.6557312 0 1.2846069 0.27376175 1.7482758 0.7610626c0.46366882 0.48730087 0.72416687 1.1482201 0.72416687 1.8373642l0 0c0 1.43507 -1.1069489 2.598423 -2.4724426 2.598423l0 0c-1.3654938 0 -2.4724426 -1.163353 -2.4724426 -2.598423z" fill-rule="evenodd"/><path stroke="#000000" stroke-width="1.0" stroke-linejoin="round" stroke-linecap="butt" d="m164.64447 42.323277l0 0c0 -1.43507 1.1069489 -2.5984268 2.4724426 -2.5984268l0 0c0.6557312 0 1.2846069 0.27376175 1.7482758 0.7610626c0.46366882 0.48730087 0.72416687 1.1482201 0.72416687 1.8373642l0 0c0 1.43507 -1.1069489 2.598423 -2.4724426 2.598423l0 0c-1.3654938 0 -2.4724426 -1.163353 -2.4724426 -2.598423z" fill-rule="evenodd"/><path fill="#000000" d="m175.63828 42.323277l0 0c0 -1.43507 1.1069489 -2.5984268 2.4724426 -2.5984268l0 0c0.6557312 0 1.2846069 0.27376175 1.748291 0.7610626c0.46366882 0.48730087 0.7241516 1.1482201 0.7241516 1.8373642l0 0c0 1.43507 -1.1069489 2.598423 -2.4724426 2.598423l0 0c-1.3654938 0 -2.4724426 -1.163353 -2.4724426 -2.598423z" fill-rule="evenodd"/><path stroke="#000000" stroke-width="1.0" stroke-linejoin="round" stroke-linecap="butt" d="m175.63828 42.323277l0 0c0 -1.43507 1.1069489 -2.5984268 2.4724426 -2.5984268l0 0c0.6557312 0 1.2846069 0.27376175 1.748291 0.7610626c0.46366882 0.48730087 0.7241516 1.1482201 0.7241516 1.8373642l0 0c0 1.43507 -1.1069489 2.598423 -2.4724426 2.598423l0 0c-1.3654938 0 -2.4724426 -1.163353 -2.4724426 -2.598423z" fill-rule="evenodd"/><path fill="#000000" d="m186.6321 42.323277l0 0c0 -1.43507 1.1069489 -2.5984268 2.4724426 -2.5984268l0 0c0.6557312 0 1.2846069 0.27376175 1.7482758 0.7610626c0.46366882 0.48730087 0.72416687 1.1482201 0.72416687 1.8373642l0 0c0 1.43507 -1.1069489 2.598423 -2.4724426 2.598423l0 0c-1.3654938 0 -2.4724426 -1.163353 -2.4724426 -2.598423z" fill-rule="evenodd"/><path stroke="#000000" stroke-width="1.0" stroke-linejoin="round" stroke-linecap="butt" d="m186.6321 42.323277l0 0c0 -1.43507 1.1069489 -2.5984268 2.4724426 -2.5984268l0 0c0.6557312 0 1.2846069 0.27376175 1.7482758 0.7610626c0.46366882 0.48730087 0.72416687 1.1482201 0.72416687 1.8373642l0 0c0 1.43507 -1.1069489 2.598423 -2.4724426 2.598423l0 0c-1.3654938 0 -2.4724426 -1.163353 -2.4724426 -2.598423z" fill-rule="evenodd"/><path fill="#000000" fill-opacity="0.0" d="m140.53107 106.78274l-98.645676 -53.6063" fill-rule="evenodd"/><path stroke="#424242" stroke-width="1.0" stroke-linejoin="round" stroke-linecap="butt" d="m140.53105 106.78274l-93.373795 -50.741444" fill-rule="evenodd"/><path fill="#424242" stroke="#424242" stroke-width="1.0" stroke-linecap="butt" d="m47.945923 54.590004l-4.776039 -0.71554565l3.1987152 3.6181183z" fill-rule="evenodd"/><path fill="#000000" fill-opacity="0.0" d="m140.53107 106.78274l-64.8504 -53.6063" fill-rule="evenodd"/><path stroke="#424242" stroke-width="1.0" stroke-linejoin="round" stroke-linecap="butt" d="m140.53105 106.78274l-60.225815 -49.78356" fill-rule="evenodd"/><path fill="#424242" stroke="#424242" stroke-width="1.0" stroke-linecap="butt" d="m81.3576 55.726086l-4.5501556 -1.6182365l2.4454422 4.164421z" fill-rule="evenodd"/><path fill="#000000" fill-opacity="0.0" d="m140.53107 106.78274l-31.055122 -53.6063" fill-rule="evenodd"/><path stroke="#424242" stroke-width="1.0" stroke-linejoin="round" stroke-linecap="butt" d="m140.53105 106.78274l-28.047455 -48.414577" fill-rule="evenodd"/><path fill="#424242" stroke="#424242" stroke-width="1.0" stroke-linecap="butt" d="m113.91282 57.540184l-3.7040634 -3.0987816l0.8456192 4.75473z" fill-rule="evenodd"/><path fill="#000000" fill-opacity="0.0" d="m140.53107 106.78274l2.7086487 -53.6063" fill-rule="evenodd"/><path stroke="#424242" stroke-width="1.0" stroke-linejoin="round" stroke-linecap="butt" d="m140.53105 106.78274l2.4058685 -47.613945" fill-rule="evenodd"/><path fill="#424242" stroke="#424242" stroke-width="1.0" stroke-linecap="butt" d="m144.58656 59.252148l-1.4206238 -4.6156693l-1.8786316 4.4489594z" fill-rule="evenodd"/><path fill="#000000" fill-opacity="0.0" d="m174.3156 106.78274l-132.40945 -53.6063" fill-rule="evenodd"/><path stroke="#424242" stroke-width="1.0" stroke-linejoin="round" stroke-linecap="butt" d="m174.3156 106.78274l-126.847946 -51.35471" fill-rule="evenodd"/><path fill="#424242" stroke="#424242" stroke-width="1.0" stroke-linecap="butt" d="m48.08749 53.897007l-4.8262787 -0.17197037l3.586605 3.2340088z" fill-rule="evenodd"/><path fill="#000000" fill-opacity="0.0" d="m174.3156 106.78274l-98.64567 -53.6063" fill-rule="evenodd"/><path stroke="#424242" stroke-width="1.0" stroke-linejoin="round" stroke-linecap="butt" d="m174.3156 106.78274l-93.3738 -50.741444" fill-rule="evenodd"/><path fill="#424242" stroke="#424242" stroke-width="1.0" stroke-linecap="butt" d="m81.73046 54.590004l-4.776039 -0.71554565l3.1987152 3.6181183z" fill-rule="evenodd"/><path fill="#000000" fill-opacity="0.0" d="m174.3156 106.78274l-64.850395 -53.6063" fill-rule="evenodd"/><path stroke="#424242" stroke-width="1.0" stroke-linejoin="round" stroke-linecap="butt" d="m174.3156 106.78274l-60.225822 -49.78356" fill-rule="evenodd"/><path fill="#424242" stroke="#424242" stroke-width="1.0" stroke-linecap="butt" d="m115.14213 55.726086l-4.550148 -1.6182365l2.4454346 4.164421z" fill-rule="evenodd"/><path fill="#000000" fill-opacity="0.0" d="m174.3156 106.78274l-31.055115 -53.6063" fill-rule="evenodd"/><path stroke="#424242" stroke-width="1.0" stroke-linejoin="round" stroke-linecap="butt" d="m174.3156 106.78274l-28.047455 -48.414577" fill-rule="evenodd"/><path fill="#424242" stroke="#424242" stroke-width="1.0" stroke-linecap="butt" d="m147.69736 57.540184l-3.7040558 -3.0987816l0.8456116 4.75473z" fill-rule="evenodd"/><path fill="#000000" fill-opacity="0.0" d="m64.03744 275.93384l0 0c0 -5.992523 4.604065 -10.850403 10.283463 -10.850403l0 0c2.7273483 0 5.342987 1.143158 7.2715073 3.178009c1.9285278 2.034851 3.011963 4.7946777 3.011963 7.672394l0 0c0 5.9924927 -4.604065 10.850372 -10.28347 10.850372l0 0c-5.6793976 0 -10.283463 -4.8578796 -10.283463 -10.850372z" fill-rule="evenodd"/><path stroke="#424242" stroke-width="2.0" stroke-linejoin="round" stroke-linecap="butt" d="m64.03744 275.93384l0 0c0 -5.992523 4.604065 -10.850403 10.283463 -10.850403l0 0c2.7273483 0 5.342987 1.143158 7.2715073 3.178009c1.9285278 2.034851 3.011963 4.7946777 3.011963 7.672394l0 0c0 5.9924927 -4.604065 10.850372 -10.28347 10.850372l0 0c-5.6793976 0 -10.283463 -4.8578796 -10.283463 -10.850372z" fill-rule="evenodd"/><path fill="#000000" fill-opacity="0.0" d="m97.821976 275.93384l0 0c0 -5.992523 4.604065 -10.850403 10.283463 -10.850403l0 0c2.7273483 0 5.342987 1.143158 7.2715073 3.178009c1.9285278 2.034851 3.011963 4.7946777 3.011963 7.672394l0 0c0 5.9924927 -4.604065 10.850372 -10.28347 10.850372l0 0c-5.6793976 0 -10.283463 -4.8578796 -10.283463 -10.850372z" fill-rule="evenodd"/><path stroke="#424242" stroke-width="2.0" stroke-linejoin="round" stroke-linecap="butt" d="m97.821976 275.93384l0 0c0 -5.992523 4.604065 -10.850403 10.283463 -10.850403l0 0c2.7273483 0 5.342987 1.143158 7.2715073 3.178009c1.9285278 2.034851 3.011963 4.7946777 3.011963 7.672394l0 0c0 5.9924927 -4.604065 10.850372 -10.28347 10.850372l0 0c-5.6793976 0 -10.283463 -4.8578796 -10.283463 -10.850372z" fill-rule="evenodd"/><path fill="#000000" fill-opacity="0.0" d="m131.6065 275.93384l0 0c0 -5.992523 4.604065 -10.850403 10.283478 -10.850403l0 0c2.7273407 0 5.342972 1.143158 7.2714996 3.178009c1.9285278 2.034851 3.011963 4.7946777 3.011963 7.672394l0 0c0 5.9924927 -4.604065 10.850372 -10.283463 10.850372l0 0c-5.679413 0 -10.283478 -4.8578796 -10.283478 -10.850372z" fill-rule="evenodd"/><path stroke="#424242" stroke-width="2.0" stroke-linejoin="round" stroke-linecap="butt" d="m131.6065 275.93384l0 0c0 -5.992523 4.604065 -10.850403 10.283478 -10.850403l0 0c2.7273407 0 5.342972 1.143158 7.2714996 3.178009c1.9285278 2.034851 3.011963 4.7946777 3.011963 7.672394l0 0c0 5.9924927 -4.604065 10.850372 -10.283463 10.850372l0 0c-5.679413 0 -10.283478 -4.8578796 -10.283478 -10.850372z" fill-rule="evenodd"/><path fill="#000000" fill-opacity="0.0" d="m165.39105 275.93384l0 0c0 -5.992523 4.604065 -10.850403 10.283463 -10.850403l0 0c2.7273407 0 5.342987 1.143158 7.271515 3.178009c1.9285126 2.034851 3.0119476 4.7946777 3.0119476 7.672394l0 0c0 5.9924927 -4.604065 10.850372 -10.283463 10.850372l0 0c-5.6793976 0 -10.283463 -4.8578796 -10.283463 -10.850372z" fill-rule="evenodd"/><path stroke="#424242" stroke-width="2.0" stroke-linejoin="round" stroke-linecap="butt" d="m165.39105 275.93384l0 0c0 -5.992523 4.604065 -10.850403 10.283463 -10.850403l0 0c2.7273407 0 5.342987 1.143158 7.271515 3.178009c1.9285126 2.034851 3.0119476 4.7946777 3.0119476 7.672394l0 0c0 5.9924927 -4.604065 10.850372 -10.283463 10.850372l0 0c-5.6793976 0 -10.283463 -4.8578796 -10.283463 -10.850372z" fill-rule="evenodd"/><path fill="#000000" fill-opacity="0.0" d="m199.17558 275.93384l0 0c0 -5.992523 4.604065 -10.850403 10.283463 -10.850403l0 0c2.727356 0 5.342987 1.143158 7.271515 3.178009c1.9285278 2.034851 3.011963 4.7946777 3.011963 7.672394l0 0c0 5.9924927 -4.604065 10.850372 -10.283478 10.850372l0 0c-5.6793976 0 -10.283463 -4.8578796 -10.283463 -10.850372z" fill-rule="evenodd"/><path stroke="#424242" stroke-width="2.0" stroke-linejoin="round" stroke-linecap="butt" d="m199.17558 275.93384l0 0c0 -5.992523 4.604065 -10.850403 10.283463 -10.850403l0 0c2.727356 0 5.342987 1.143158 7.271515 3.178009c1.9285278 2.034851 3.011963 4.7946777 3.011963 7.672394l0 0c0 5.9924927 -4.604065 10.850372 -10.283478 10.850372l0 0c-5.6793976 0 -10.283463 -4.8578796 -10.283463 -10.850372z" fill-rule="evenodd"/><path fill="#000000" fill-opacity="0.0" d="m232.96013 275.93384l0 0c0 -5.992523 4.604065 -10.850403 10.283463 -10.850403l0 0c2.7273407 0 5.342987 1.143158 7.2714996 3.178009c1.9285278 2.034851 3.011963 4.7946777 3.011963 7.672394l0 0c0 5.9924927 -4.604065 10.850372 -10.283463 10.850372l0 0c-5.6793976 0 -10.283463 -4.8578796 -10.283463 -10.850372z" fill-rule="evenodd"/><path stroke="#424242" stroke-width="2.0" stroke-linejoin="round" stroke-linecap="butt" d="m232.96013 275.93384l0 0c0 -5.992523 4.604065 -10.850403 10.283463 -10.850403l0 0c2.7273407 0 5.342987 1.143158 7.2714996 3.178009c1.9285278 2.034851 3.011963 4.7946777 3.011963 7.672394l0 0c0 5.9924927 -4.604065 10.850372 -10.283463 10.850372l0 0c-5.6793976 0 -10.283463 -4.8578796 -10.283463 -10.850372z" fill-rule="evenodd"/><path fill="#000000" fill-opacity="0.0" d="m266.74466 275.93384l0 0c0 -5.992523 4.604065 -10.850403 10.283478 -10.850403l0 0c2.7273254 0 5.342987 1.143158 7.2714844 3.178009c1.9285278 2.034851 3.011963 4.7946777 3.011963 7.672394l0 0c0 5.9924927 -4.604065 10.850372 -10.283447 10.850372l0 0c-5.679413 0 -10.283478 -4.8578796 -10.283478 -10.850372z" fill-rule="evenodd"/><path stroke="#424242" stroke-width="2.0" stroke-linejoin="round" stroke-linecap="butt" d="m266.74466 275.93384l0 0c0 -5.992523 4.604065 -10.850403 10.283478 -10.850403l0 0c2.7273254 0 5.342987 1.143158 7.2714844 3.178009c1.9285278 2.034851 3.011963 4.7946777 3.011963 7.672394l0 0c0 5.9924927 -4.604065 10.850372 -10.283447 10.850372l0 0c-5.679413 0 -10.283478 -4.8578796 -10.283478 -10.850372z" fill-rule="evenodd"/><path fill="#000000" fill-opacity="0.0" d="m300.5292 275.93384l0 0c0 -5.992523 4.604065 -10.850403 10.283447 -10.850403l0 0c2.727356 0 5.342987 1.143158 7.271515 3.178009c1.9285278 2.034851 3.011963 4.7946777 3.011963 7.672394l0 0c0 5.9924927 -4.604065 10.850372 -10.283478 10.850372l0 0c-5.6793823 0 -10.283447 -4.8578796 -10.283447 -10.850372z" fill-rule="evenodd"/><path stroke="#424242" stroke-width="2.0" stroke-linejoin="round" stroke-linecap="butt" d="m300.5292 275.93384l0 0c0 -5.992523 4.604065 -10.850403 10.283447 -10.850403l0 0c2.727356 0 5.342987 1.143158 7.271515 3.178009c1.9285278 2.034851 3.011963 4.7946777 3.011963 7.672394l0 0c0 5.9924927 -4.604065 10.850372 -10.283478 10.850372l0 0c-5.6793823 0 -10.283447 -4.8578796 -10.283447 -10.850372z" fill-rule="evenodd"/><path fill="#000000" fill-opacity="0.0" d="m334.31375 275.93384l0 0c0 -5.992523 4.604065 -10.850403 10.283447 -10.850403l0 0c2.727356 0 5.342987 1.143158 7.271515 3.178009c1.9285278 2.034851 3.011963 4.7946777 3.011963 7.672394l0 0c0 5.9924927 -4.604065 10.850372 -10.283478 10.850372l0 0c-5.6793823 0 -10.283447 -4.8578796 -10.283447 -10.850372z" fill-rule="evenodd"/><path stroke="#424242" stroke-width="2.0" stroke-linejoin="round" stroke-linecap="butt" d="m334.31375 275.93384l0 0c0 -5.992523 4.604065 -10.850403 10.283447 -10.850403l0 0c2.727356 0 5.342987 1.143158 7.271515 3.178009c1.9285278 2.034851 3.011963 4.7946777 3.011963 7.672394l0 0c0 5.9924927 -4.604065 10.850372 -10.283478 10.850372l0 0c-5.6793823 0 -10.283447 -4.8578796 -10.283447 -10.850372z" fill-rule="evenodd"/><path fill="#000000" fill-opacity="0.0" d="m211.96693 164.31602l-71.433075 -35.842514" fill-rule="evenodd"/><path stroke="#424242" stroke-width="1.0" stroke-linejoin="round" stroke-linecap="butt" d="m211.96695 164.31602l-66.07031 -33.151672" fill-rule="evenodd"/><path fill="#424242" stroke="#424242" stroke-width="1.0" stroke-linecap="butt" d="m146.6374 129.68803l-4.7969055 -0.5588989l3.315384 3.5115356z" fill-rule="evenodd"/><path fill="#000000" fill-opacity="0.0" d="m211.96693 164.31602l63.716537 -35.842514" fill-rule="evenodd"/><path stroke="#424242" stroke-width="1.0" stroke-linejoin="round" stroke-linecap="butt" d="m211.96695 164.31602l58.487152 -32.900818" fill-rule="evenodd"/><path fill="#424242" stroke="#424242" stroke-width="1.0" stroke-linecap="butt" d="m271.26392 132.85478l3.1454163 -3.6645355l-4.765045 0.7853546z" fill-rule="evenodd"/><path fill="#000000" fill-opacity="0.0" d="m74.3209 265.08344l137.63779 -18.960632" fill-rule="evenodd"/><path stroke="#424242" stroke-width="1.0" stroke-linejoin="round" stroke-linecap="butt" d="m74.3209 265.08344l131.69394 -18.141815" fill-rule="evenodd"/><path fill="#424242" stroke="#424242" stroke-width="1.0" stroke-linecap="butt" d="m206.24025 248.5779l4.270233 -2.2555847l-4.721054 -1.0169678z" fill-rule="evenodd"/><path fill="#000000" fill-opacity="0.0" d="m344.5972 265.08344l-132.62991 -18.960632" fill-rule="evenodd"/><path stroke="#424242" stroke-width="1.0" stroke-linejoin="round" stroke-linecap="butt" d="m344.5972 265.08344l-126.69031 -18.111511" fill-rule="evenodd"/><path fill="#424242" stroke="#424242" stroke-width="1.0" stroke-linecap="butt" d="m218.14064 245.33682l-4.726181 0.99287415l4.258667 2.2773438z" fill-rule="evenodd"/><path fill="#000000" fill-opacity="0.0" d="m211.96693 164.31602l-3.8740082 -35.842514" fill-rule="evenodd"/><path stroke="#424242" stroke-width="1.0" stroke-linejoin="round" stroke-linecap="butt" d="m211.96695 164.31602l-3.2292786 -29.877258" fill-rule="evenodd"/><path fill="#424242" stroke="#424242" stroke-width="1.0" stroke-linecap="butt" d="m210.37985 134.26128l-2.1298218 -4.3343353l-1.1545105 4.689316z" fill-rule="evenodd"/><path fill="#000000" fill-opacity="0.0" d="m175.67451 265.08344l36.283463 -18.960632" fill-rule="evenodd"/><path stroke="#424242" stroke-width="1.0" stroke-linejoin="round" stroke-linecap="butt" d="m175.67451 265.08344l30.965775 -16.181763" fill-rule="evenodd"/><path fill="#424242" stroke="#424242" stroke-width="1.0" stroke-linecap="butt" d="m207.40527 250.36557l3.2570496 -3.565689l-4.787033 0.6378937z" fill-rule="evenodd"/><path fill="#000000" fill-opacity="0.0" d="m243.24359 265.08344l-31.275589 -18.960632" fill-rule="evenodd"/><path stroke="#424242" stroke-width="1.0" stroke-linejoin="round" stroke-linecap="butt" d="m243.24358 265.08344l-26.144821 -15.850128" fill-rule="evenodd"/><path fill="#424242" stroke="#424242" stroke-width="1.0" stroke-linecap="butt" d="m217.95505 247.82086l-4.7369385 -0.94018555l3.0243683 3.7650757z" fill-rule="evenodd"/><path fill="#000000" fill-opacity="0.0" d="m208.10013 106.78274l-166.20471 -53.6063" fill-rule="evenodd"/><path stroke="#424242" stroke-width="1.0" stroke-linejoin="round" stroke-linecap="butt" d="m208.10013 106.78274l-160.49438 -51.764534" fill-rule="evenodd"/><path fill="#424242" stroke="#424242" stroke-width="1.0" stroke-linecap="butt" d="m48.11276 53.44621l-4.826023 0.17897415l3.8119926 2.9650078z" fill-rule="evenodd"/><path fill="#000000" fill-opacity="0.0" d="m241.88467 106.78274l-200.0 -53.6063" fill-rule="evenodd"/><path stroke="#424242" stroke-width="1.0" stroke-linejoin="round" stroke-linecap="butt" d="m241.88467 106.78274l-194.20456 -52.05294" fill-rule="evenodd"/><path fill="#424242" stroke="#424242" stroke-width="1.0" stroke-linecap="butt" d="m48.107727 53.134377l-4.810997 0.42053604l3.9557533 2.7703018z" fill-rule="evenodd"/><path fill="#000000" fill-opacity="0.0" d="m275.66922 106.78274l-233.7638 -53.6063" fill-rule="evenodd"/><path stroke="#424242" stroke-width="1.0" stroke-linejoin="round" stroke-linecap="butt" d="m275.66922 106.78274l-227.91559 -52.2652" fill-rule="evenodd"/><path fill="#424242" stroke="#424242" stroke-width="1.0" stroke-linecap="butt" d="m48.122818 52.907593l-4.792473 0.59560394l4.054096 2.6242828z" fill-rule="evenodd"/><path fill="#000000" fill-opacity="0.0" d="m275.66922 106.78274l-200.0 -53.6063" fill-rule="evenodd"/><path stroke="#424242" stroke-width="1.0" stroke-linejoin="round" stroke-linecap="butt" d="m275.66922 106.78274l-194.20457 -52.05294" fill-rule="evenodd"/><path fill="#424242" stroke="#424242" stroke-width="1.0" stroke-linecap="butt" d="m81.892265 53.13438l-4.810997 0.42053223l3.9557571 2.7703018z" fill-rule="evenodd"/><path fill="#000000" fill-opacity="0.0" d="m208.10013 106.78274l-132.40944 -53.6063" fill-rule="evenodd"/><path stroke="#424242" stroke-width="1.0" stroke-linejoin="round" stroke-linecap="butt" d="m208.10013 106.78274l-126.84794 -51.35471" fill-rule="evenodd"/><path fill="#424242" stroke="#424242" stroke-width="1.0" stroke-linecap="butt" d="m81.872025 53.897007l-4.8262787 -0.17197037l3.586609 3.2340088z" fill-rule="evenodd"/><path fill="#000000" fill-opacity="0.0" d="m241.88467 106.78274l-166.20473 -53.6063" fill-rule="evenodd"/><path stroke="#424242" stroke-width="1.0" stroke-linejoin="round" stroke-linecap="butt" d="m241.88467 106.78274l-160.49438 -51.764534" fill-rule="evenodd"/><path fill="#424242" stroke="#424242" stroke-width="1.0" stroke-linecap="butt" d="m81.8973 53.44621l-4.826027 0.17897415l3.8119888 2.9650078z" fill-rule="evenodd"/><path fill="#000000" fill-opacity="0.0" d="m208.10013 106.78274l-98.64566 -53.6063" fill-rule="evenodd"/><path stroke="#424242" stroke-width="1.0" stroke-linejoin="round" stroke-linecap="butt" d="m208.10013 106.78274l-93.373795 -50.741444" fill-rule="evenodd"/><path fill="#424242" stroke="#424242" stroke-width="1.0" stroke-linecap="butt" d="m115.515 54.590004l-4.776039 -0.71554184l3.1987152 3.6181145z" fill-rule="evenodd"/><path fill="#000000" fill-opacity="0.0" d="m208.10013 106.78274l-64.85039 -53.6063" fill-rule="evenodd"/><path stroke="#424242" stroke-width="1.0" stroke-linejoin="round" stroke-linecap="butt" d="m208.10013 106.78274l-60.225815 -49.78356" fill-rule="evenodd"/><path fill="#424242" stroke="#424242" stroke-width="1.0" stroke-linecap="butt" d="m148.92667 55.726086l-4.5501404 -1.6182365l2.4454346 4.164421z" fill-rule="evenodd"/><path fill="#000000" fill-opacity="0.0" d="m241.88467 106.78274l-132.40945 -53.6063" fill-rule="evenodd"/><path stroke="#424242" stroke-width="1.0" stroke-linejoin="round" stroke-linecap="butt" d="m241.88467 106.78274l-126.847946 -51.35471" fill-rule="evenodd"/><path fill="#424242" stroke="#424242" stroke-width="1.0" stroke-linecap="butt" d="m115.65656 53.897007l-4.8262787 -0.17197037l3.5866013 3.2340088z" fill-rule="evenodd"/><path fill="#000000" fill-opacity="0.0" d="m241.88467 106.78274l-132.40945 -53.6063" fill-rule="evenodd"/><path stroke="#424242" stroke-width="1.0" stroke-linejoin="round" stroke-linecap="butt" d="m241.88467 106.78274l-126.847946 -51.35471" fill-rule="evenodd"/><path fill="#424242" stroke="#424242" stroke-width="1.0" stroke-linecap="butt" d="m115.65656 53.897007l-4.8262787 -0.17197037l3.5866013 3.2340088z" fill-rule="evenodd"/><path fill="#000000" fill-opacity="0.0" d="m275.66922 106.78274l-132.40945 -53.6063" fill-rule="evenodd"/><path stroke="#424242" stroke-width="1.0" stroke-linejoin="round" stroke-linecap="butt" d="m275.66922 106.78274l-126.84796 -51.35471" fill-rule="evenodd"/><path fill="#424242" stroke="#424242" stroke-width="1.0" stroke-linecap="butt" d="m149.4411 53.897007l-4.8262787 -0.17197037l3.586609 3.2340088z" fill-rule="evenodd"/><path fill="#000000" fill-opacity="0.0" d="m275.66922 106.78274l-132.40945 -53.6063" fill-rule="evenodd"/><path stroke="#424242" stroke-width="1.0" stroke-linejoin="round" stroke-linecap="butt" d="m275.66922 106.78274l-126.84796 -51.35471" fill-rule="evenodd"/><path fill="#424242" stroke="#424242" stroke-width="1.0" stroke-linecap="butt" d="m149.4411 53.897007l-4.8262787 -0.17197037l3.586609 3.2340088z" fill-rule="evenodd"/><path fill="#000000" fill-opacity="0.0" d="m275.66922 106.78274l-166.20474 -53.6063" fill-rule="evenodd"/><path stroke="#424242" stroke-width="1.0" stroke-linejoin="round" stroke-linecap="butt" d="m275.66922 106.78274l-160.4944 -51.764534" fill-rule="evenodd"/><path fill="#424242" stroke="#424242" stroke-width="1.0" stroke-linecap="butt" d="m115.68183 53.44621l-4.8260193 0.17897415l3.8119888 2.9650078z" fill-rule="evenodd"/><path fill="#000000" fill-opacity="0.0" d="m386.04462 293.6378l-0.31497192 -282.39368" fill-rule="evenodd"/><path stroke="#000000" stroke-width="3.0" stroke-linejoin="round" stroke-linecap="butt" d="m386.04462 293.6378l-0.29486084 -264.3937" fill-rule="evenodd"/><path fill="#000000" stroke="#000000" stroke-width="3.0" stroke-linecap="butt" d="m390.70493 29.238556l-4.9703674 -13.608757l-4.940033 13.61981z" fill-rule="evenodd"/><path fill="#000000" fill-opacity="0.0" d="m390.81366 255.04987l46.519684 0l0 26.236237l-46.519684 0z" fill-rule="evenodd"/><path fill="#000000" d="m403.4074 277.14175l-3.296875 -4.6875l1.796875 0l2.453125 3.53125l2.375 -3.53125l1.84375 0l-3.3125 4.6875l3.390625 4.828125l-1.84375 0l-2.484375 -3.65625l-2.421875 3.65625l-1.84375 0l3.34375 -4.828125z" fill-rule="nonzero"/><path fill="#000000" fill-opacity="0.0" d="m385.72964 100.35171l57.543335 0l0 46.425194l-57.543335 0z" fill-rule="evenodd"/><path fill="#0000ff" d="m400.90152 124.365456q-1.375 0 -2.515625 -0.65625q-1.140625 -0.65625 -1.8125 -1.875q-0.65625 -1.21875 -0.65625 -2.859375l0 -5.0625l1.59375 0l0 5.125q0 1.71875 0.875 2.765625q0.890625 1.046875 2.515625 1.046875l0 -8.9375l1.59375 0l0 8.9375q1.625 0 2.5 -1.046875q0.890625 -1.046875 0.890625 -2.765625l0 -5.125l1.59375 0l0 5.0625q0 1.640625 -0.671875 2.859375q-0.65625 1.21875 -1.796875 1.875q-1.140625 0.65625 -2.515625 0.65625l0 2.90625l-1.59375 0l0 -2.90625zm12.264343 5.4374924q-1.359375 -1.5625 -2.34375 -3.7812424q-0.984375 -2.234375 -0.984375 -4.75q0 -2.53125 0.984375 -4.75q0.984375 -2.234375 2.34375 -3.796875l1.15625 0.8125q-1.265625 1.515625 -2.09375 3.5625q-0.8125 2.03125 -0.8125 4.171875q0 2.125 0.8125 4.171875q0.828125 2.03125 2.09375 3.5468674l-1.15625 0.8125zm5.1197205 -7.3593674l-3.296875 -4.6875l1.796875 0l2.453125 3.53125l2.375 -3.53125l1.84375 0l-3.3125 4.6875l3.390625 4.828125l-1.84375 0l-2.484375 -3.65625l-2.421875 3.65625l-1.84375 0l3.34375 -4.828125zm5.866852 6.5468674q1.265625 -1.5156174 2.078125 -3.5468674q0.828125 -2.046875 0.828125 -4.171875q0 -2.140625 -0.828125 -4.171875q-0.8125 -2.046875 -2.078125 -3.5625l1.15625 -0.8125q1.359375 1.5625 2.328125 3.796875q0.984375 2.21875 0.984375 4.75q0 2.515625 -0.984375 4.75q-0.96875 2.2187424 -2.328125 3.7812424l-1.15625 -0.8125z" fill-rule="nonzero"/></g></svg>