<svg version="1.1" viewBox="0.0 0.0 290.01574803149606 246.68766404199476" fill="none" stroke="none" stroke-linecap="square" stroke-miterlimit="10" xmlns:xlink="http://www.w3.org/1999/xlink" xmlns="http://www.w3.org/2000/svg"><clipPath id="p.0"><path d="m0 0l290.01575 0l0 246.68767l-290.01575 0l0 -246.68767z" clip-rule="nonzero"/></clipPath><g clip-path="url(#p.0)"><path fill="#000000" fill-opacity="0.0" d="m0 0l290.01575 0l0 246.68767l-290.01575 0z" fill-rule="evenodd"/><path fill="#bdbdbd" d="m203.7694 214.93759l73.086624 -169.14961l2.2834473 184.29921z" fill-rule="evenodd"/><path stroke="#666666" stroke-width="1.0" stroke-linejoin="round" stroke-linecap="butt" d="m203.7694 214.93759l73.086624 -169.14961l2.2834473 184.29921z" fill-rule="evenodd"/><path fill="#4285f4" d="m221.66774 187.36206l0 0c0.6609955 -3.3137207 3.883133 -5.464157 7.1968536 -4.8031616l0 0c1.5912933 0.3174286 2.9913177 1.2539978 3.8920898 2.6036682c0.90075684 1.3496704 1.2284851 3.001892 0.9110565 4.5931854l0 0c-0.66101074 3.3137054 -3.8831482 5.464157 -7.1968536 4.8031464l0 0c-3.3137054 -0.6609955 -5.464157 -3.883133 -4.8031464 -7.1968384z" fill-rule="evenodd"/><path fill="#4285f4" d="m238.8521 148.25272l0 0c0.6609955 -3.3137054 3.8831482 -5.464157 7.1968536 -4.8031464l0 0c1.5912933 0.31741333 2.9913177 1.2539825 3.8920898 2.603653c0.90075684 1.3496704 1.2284851 3.001892 0.9110565 4.5932007l0 0c-0.6609955 3.3137054 -3.8831482 5.464142 -7.1968536 4.8031464l0 0c-3.3137054 -0.66101074 -5.464142 -3.8831482 -4.8031464 -7.1968536z" fill-rule="evenodd"/><path fill="#f3f3f3" d="m8.001208 202.29921l67.459145 -196.89626l201.20227 40.329334l-67.45915 196.89626z" fill-rule="evenodd"/><path stroke="#666666" stroke-width="1.0" stroke-linejoin="round" stroke-linecap="butt" d="m8.001208 202.29921l67.459145 -196.89626l201.20227 40.329334l-67.45915 196.89626z" fill-rule="evenodd"/><path fill="#4285f4" d="m252.39223 199.75055l0 0c0.6609955 -3.3137054 3.883133 -5.464142 7.1968536 -4.8031464l0 0c1.5912781 0.3174286 2.9913025 1.2539825 3.8920898 2.603653c0.90075684 1.3496704 1.2284851 3.001892 0.91104126 4.5932007l0 0c-0.6609802 3.3137054 -3.8831177 5.464142 -7.1968384 4.8031464l0 0c-3.3137054 -0.6609955 -5.464157 -3.8831482 -4.8031464 -7.1968536z" fill-rule="evenodd"/><path fill="#cccccc" d="m118.046 61.883472l10.3937 0l0 9.669292l-10.3937 0z" fill-rule="evenodd"/><path fill="#4285f4" d="m261.89468 173.68153l10.393707 0l0 9.669296l-10.393707 0z" fill-rule="evenodd"/><path fill="#4285f4" d="m228.86888 206.70732l10.393707 0l0 9.669296l-10.393707 0z" fill-rule="evenodd"/><path fill="#000000" fill-opacity="0.0" d="m79.94529 85.61278l3.370079 -26.141731" fill-rule="evenodd"/><path stroke="#ff0000" stroke-width="1.0" stroke-linejoin="round" stroke-linecap="butt" d="m79.94529 85.61278l3.370079 -26.141731" fill-rule="evenodd"/><path fill="#000000" fill-opacity="0.0" d="m120.013985 69.29918l3.6850357 -41.102364" fill-rule="evenodd"/><path stroke="#ff0000" stroke-width="1.0" stroke-linejoin="round" stroke-linecap="butt" d="m120.013985 69.29918l3.6850357 -41.102364" fill-rule="evenodd"/><path fill="#000000" fill-opacity="0.0" d="m85.14214 90.447426l17.700783 -1.9527588" fill-rule="evenodd"/><path stroke="#ff0000" stroke-width="1.0" stroke-linejoin="round" stroke-linecap="butt" d="m85.14214 90.447426l17.700783 -1.9527588" fill-rule="evenodd"/><path fill="#cccccc" d="m81.79132 92.65567l10.3937 0l0 9.669289l-10.3937 0z" fill-rule="evenodd"/><path fill="#000000" fill-opacity="0.0" d="m102.834496 88.48065l17.165352 -19.181107" fill-rule="evenodd"/><path stroke="#ff0000" stroke-width="1.0" stroke-linejoin="round" stroke-linecap="butt" d="m102.834496 88.48065l17.165352 -19.181107" fill-rule="evenodd"/><path fill="#000000" fill-opacity="0.0" d="m79.94529 95.28207l37.448822 -57.700783" fill-rule="evenodd"/><path stroke="#ff0000" stroke-width="1.0" stroke-linejoin="round" stroke-linecap="butt" d="m79.94529 95.28207l37.448822 -57.700783" fill-rule="evenodd"/><path fill="#ff0000" d="m74.748436 85.61278l10.393707 0l0 9.669289l-10.393707 0z" fill-rule="evenodd"/><path fill="#ff0000" d="m114.81713 59.629887l10.393707 0l0 9.669292l-10.393707 0z" fill-rule="evenodd"/><path fill="#cccccc" d="m105.32544 88.32972l0 0c0.6610031 -3.3137054 3.8831406 -5.4641495 7.1968536 -4.8031464l0 0c1.5912933 0.31742096 2.9913254 1.2539902 3.8920898 2.6036606c0.90076447 1.3496704 1.2284775 3.001892 0.9110565 4.593193l0 0c-0.6610031 3.3137054 -3.8831406 5.4641495 -7.1968536 4.8031464l0 0c-3.3137054 -0.6610031 -5.4641495 -3.8831406 -4.8031464 -7.1968536z" fill-rule="evenodd"/><path fill="#ff0000" d="m101.92343 83.88746l0 0c0.6610031 -3.3137054 3.8831482 -5.4641495 7.1968536 -4.8031464l0 0c1.591301 0.31742096 2.9913254 1.2539902 3.8920898 2.6036606c0.90076447 1.3496704 1.2284851 3.001892 0.9110565 4.5931854l0 0c-0.6609955 3.313713 -3.8831406 5.464157 -7.196846 4.803154l0 0c-3.313713 -0.6610031 -5.4641495 -3.8831406 -4.803154 -7.1968536z" fill-rule="evenodd"/><path fill="#cccccc" d="m117.85083 34.868473l0 0c0.6610031 -3.3137093 3.8831406 -5.4641533 7.1968536 -4.803152l0 0c1.5912933 0.31742477 2.9913177 1.2539902 3.8920898 2.6036625c0.9007721 1.3496704 1.2284851 3.0018883 0.9110565 4.5931892l0 0c-0.6609955 3.3137093 -3.8831406 5.4641495 -7.196846 4.80315l0 0c-3.313713 -0.6610031 -5.464157 -3.8831444 -4.803154 -7.19685z" fill-rule="evenodd"/><path fill="#ff0000" d="m116.49196 32.99114l0 0c0.6610031 -3.3137093 3.8831406 -5.4641514 7.1968536 -4.80315l0 0c1.591301 0.31742477 2.9913254 1.2539902 3.8920898 2.6036606c0.9007721 1.3496704 1.2284851 3.001892 0.9110565 4.5931892l0 0c-0.6610031 3.3137093 -3.8831406 5.4641533 -7.196846 4.80315l0 0c-3.313713 -0.6610031 -5.464157 -3.8831406 -4.803154 -7.19685z" fill-rule="evenodd"/><path fill="#cccccc" d="m84.196785 57.0374l0 0c0.6610031 -3.3137093 3.8831406 -5.4641533 7.1968536 -4.80315l0 0c1.591301 0.31742477 2.9913254 1.2539902 3.8920898 2.6036606c0.90076447 1.3496704 1.2284851 3.001892 0.9110565 4.5931892l0 0c-0.6610031 3.3137093 -3.8831406 5.4641495 -7.196846 4.8031464l0 0c-3.313713 -0.6609993 -5.464157 -3.8831367 -4.803154 -7.196846z" fill-rule="evenodd"/><path fill="#ff0000" d="m78.52507 52.289898l0 0c0.6610031 -3.3137093 3.8831406 -5.4641495 7.196846 -4.80315l0 0c1.591301 0.31742477 2.9913254 1.2539902 3.8920898 2.6036606c0.9007721 1.3496742 1.2284851 3.001892 0.91106415 4.593193l0 0c-0.6610031 3.3137054 -3.8831406 5.4641495 -7.1968536 4.8031464l0 0c-3.3137054 -0.6609993 -5.4641495 -3.8831406 -4.8031464 -7.19685z" fill-rule="evenodd"/><path fill="#000000" fill-opacity="0.0" d="m90.52507 54.6836l34.677162 9.795273" fill-rule="evenodd"/><path stroke="#ff0000" stroke-width="1.0" stroke-linejoin="round" stroke-linecap="butt" d="m90.52507 54.6836l34.677162 9.795273" fill-rule="evenodd"/><path fill="#cccccc" d="m121.26514 168.4423l0 0c0.65851593 -3.315567 3.8801422 -5.469513 7.195709 -4.8110046l0 0c1.5921936 0.3162384 2.9935455 1.2520142 3.8957825 2.601471c0.90223694 1.3494568 1.2314606 3.00206 0.91522217 4.5942383l0 0c-0.65852356 3.315567 -3.8801422 5.469528 -7.195709 4.8110046l0 0c-3.315567 -0.6585083 -5.469528 -3.8801422 -4.8110046 -7.195709z" fill-rule="evenodd"/><path fill="#cccccc" d="m176.09836 140.93143l0 0c0.6585083 -3.315567 3.8801422 -5.469528 7.195709 -4.8110046l0 0c1.5921936 0.3162384 2.9935455 1.2520142 3.8957825 2.601471c0.90223694 1.3494568 1.2314453 3.0020447 0.91522217 4.5942383l0 0c-0.65852356 3.315567 -3.8801422 5.469528 -7.195709 4.8110046l0 0c-3.315567 -0.65852356 -5.469528 -3.8801422 -4.8110046 -7.195709z" fill-rule="evenodd"/><path fill="#cccccc" d="m189.33368 162.88643l0 0c0.65852356 -3.315567 3.8801422 -5.469528 7.195709 -4.8110046l0 0c1.5921936 0.3162384 2.9935455 1.2519989 3.8957825 2.601471c0.90223694 1.3494568 1.2314606 3.0020447 0.91522217 4.5942383l0 0c-0.65852356 3.315567 -3.8801422 5.469528 -7.195709 4.8110046l0 0c-3.315567 -0.65852356 -5.469528 -3.8801422 -4.8110046 -7.195709z" fill-rule="evenodd"/><path fill="#cccccc" d="m179.05351 201.71776l0 0c0.6585083 -3.3155518 3.8801422 -5.469513 7.195709 -4.8110046l0 0c1.5921783 0.3162384 2.9935455 1.2520142 3.8957825 2.601471c0.90223694 1.3494568 1.2314453 3.00206 0.91522217 4.5942383l0 0c-0.65852356 3.315567 -3.8801575 5.469528 -7.195709 4.8110046l0 0c-3.315567 -0.6585083 -5.469528 -3.8801422 -4.8110046 -7.195709z" fill-rule="evenodd"/><path fill="#cccccc" d="m143.7096 187.30637l10.398422 0l0 9.677475l-10.398422 0z" fill-rule="evenodd"/><path fill="#cccccc" d="m166.24794 165.80836l10.398422 0l0 9.677475l-10.398422 0z" fill-rule="evenodd"/><path fill="#cccccc" d="m200.31552 177.85774l10.3984375 0l0 9.677475l-10.3984375 0z" fill-rule="evenodd"/><path fill="#34a853" d="m119.3923 166.86404l0 0c0.6610031 -3.3137054 3.8831482 -5.464142 7.1968536 -4.8031464l0 0c1.5912933 0.3174286 2.991333 1.2539978 3.8920898 2.6036682c0.9007721 1.3496704 1.2284851 3.001892 0.9110565 4.5931854l0 0c-0.6609955 3.3137054 -3.8831406 5.464157 -7.196846 4.8031464l0 0c-3.313713 -0.6609955 -5.4641495 -3.883133 -4.803154 -7.1968536z" fill-rule="evenodd"/><path fill="#34a853" d="m168.5017 134.1531l0 0c0.6609955 -3.3137054 3.883133 -5.464142 7.1968384 -4.8031464l0 0c1.5913086 0.3174286 2.991333 1.2539978 3.8920898 2.6036682c0.9007721 1.3496704 1.2284851 3.001892 0.9110718 4.5931854l0 0c-0.66101074 3.3137054 -3.8831482 5.464157 -7.1968536 4.8031464l0 0c-3.3137054 -0.6609955 -5.464157 -3.883133 -4.8031464 -7.1968536z" fill-rule="evenodd"/><path fill="#34a853" d="m184.85716 158.70778l0 0c0.66101074 -3.3137054 3.8831482 -5.464142 7.1968536 -4.8031464l0 0c1.5913086 0.3174286 2.991333 1.2539825 3.8920898 2.6036682c0.9007721 1.3496704 1.2284851 3.0018768 0.9110565 4.5931854l0 0c-0.6609955 3.3137054 -3.883133 5.464157 -7.1968384 4.8031464l0 0c-3.3137207 -0.6609955 -5.464157 -3.8831482 -4.8031616 -7.1968536z" fill-rule="evenodd"/><path fill="#34a853" d="m176.65796 199.61792l0 0c0.66101074 -3.3137054 3.8831482 -5.464142 7.1968536 -4.8031464l0 0c1.5912933 0.3174286 2.9913177 1.2539825 3.8920898 2.603653c0.9007721 1.3496857 1.2284851 3.001892 0.9110565 4.5932007l0 0c-0.6609955 3.3137054 -3.883133 5.464142 -7.1968536 4.8031464l0 0c-3.3137054 -0.6609955 -5.464142 -3.8831482 -4.8031464 -7.1968536z" fill-rule="evenodd"/><path fill="#34a853" d="m140.80006 184.69012l10.393692 0l0 9.669296l-10.393692 0z" fill-rule="evenodd"/><path fill="#34a853" d="m162.81726 162.67294l10.393707 0l0 9.669296l-10.393707 0z" fill-rule="evenodd"/><path fill="#34a853" d="m195.84308 173.68153l10.393692 0l0 9.669296l-10.393692 0z" fill-rule="evenodd"/><path fill="#000000" fill-opacity="0.0" d="m119.3923 166.86404l43.433075 0.6299286" fill-rule="evenodd"/><path stroke="#34a853" stroke-width="1.0" stroke-linejoin="round" stroke-linecap="butt" d="m119.3923 166.86404l43.433075 0.6299286" fill-rule="evenodd"/><path fill="#000000" fill-opacity="0.0" d="m173.21097 167.50758l12.566925 -4.2204742" fill-rule="evenodd"/><path stroke="#34a853" stroke-width="1.0" stroke-linejoin="round" stroke-linecap="butt" d="m173.21097 167.50758l12.566925 -4.2204742" fill-rule="evenodd"/><path fill="#000000" fill-opacity="0.0" d="m168.01411 162.67294l5.291336 -21.32283" fill-rule="evenodd"/><path stroke="#34a853" stroke-width="1.0" stroke-linejoin="round" stroke-linecap="butt" d="m168.01411 162.67294l5.291336 -21.32283" fill-rule="evenodd"/><path fill="#000000" fill-opacity="0.0" d="m128.78865 173.14984l22.393692 16.37796" fill-rule="evenodd"/><path stroke="#34a853" stroke-width="1.0" stroke-linejoin="round" stroke-linecap="butt" d="m128.78865 173.14984l22.393692 16.37796" fill-rule="evenodd"/><path fill="#000000" fill-opacity="0.0" d="m201.03993 173.68153l-6.771652 -8.692917" fill-rule="evenodd"/><path stroke="#34a853" stroke-width="1.0" stroke-linejoin="round" stroke-linecap="butt" d="m201.03993 173.68153l-6.771652 -8.692917" fill-rule="evenodd"/><path fill="#000000" fill-opacity="0.0" d="m187.7469 197.41843l13.291336 -23.748032" fill-rule="evenodd"/><path stroke="#34a853" stroke-width="1.0" stroke-linejoin="round" stroke-linecap="butt" d="m187.7469 197.41843l13.291336 -23.748032" fill-rule="evenodd"/><path fill="#000000" fill-opacity="0.0" d="m179.26163 195.72583l-11.244095 -23.370071" fill-rule="evenodd"/><path stroke="#34a853" stroke-width="1.0" stroke-linejoin="round" stroke-linecap="butt" d="m179.26163 195.72583l-11.244095 -23.370071" fill-rule="evenodd"/><path fill="#000000" fill-opacity="0.0" d="m176.65796 199.61792l-35.842514 -10.078735" fill-rule="evenodd"/><path stroke="#34a853" stroke-width="1.0" stroke-linejoin="round" stroke-linecap="butt" d="m176.65796 199.61792l-35.842514 -10.078735" fill-rule="evenodd"/></g></svg>